<svg width="115" height="115" viewBox="0 0 115 115" fill="none" xmlns="http://www.w3.org/2000/svg">
<path d="M97.9752 97.9992H80.9456V71.3144C80.9456 64.951 80.8162 56.7621 72.0715 56.7621C63.1925 56.7621 61.8365 63.686 61.8365 70.8448V97.9992H44.8069V43.125H61.1656V50.6048H61.386C63.6717 46.2923 69.23 41.7402 77.534 41.7402C94.7887 41.7402 97.98 53.0965 97.98 67.8787V97.9992H97.9752ZM25.5731 35.6165C20.0915 35.6165 15.6879 31.1794 15.6879 25.7217C15.6879 20.2687 20.0962 15.8365 25.5731 15.8365C31.0356 15.8365 35.4631 20.2687 35.4631 25.7217C35.4631 31.1794 31.0308 35.6165 25.5731 35.6165ZM34.1119 97.9992H17.0344V43.125H34.1119V97.9992ZM106.495 0H8.48604C3.795 0 0 3.70875 0 8.28479V106.715C0 111.296 3.795 115 8.48604 115H106.48C111.167 115 115 111.296 115 106.715V8.28479C115 3.70875 111.167 0 106.48 0H106.495Z" fill="#C2C5BB"/>
</svg>
