<svg width="115" height="115" viewBox="0 0 115 115" fill="none" xmlns="http://www.w3.org/2000/svg">
<g clip-path="url(#clip0)">
<path d="M113.227 73.3125C109.825 69.7427 102.848 67.7062 92.9871 67.7062C87.7162 67.7062 81.5973 68.2141 74.9656 69.4025C70.9027 65.4954 67.2027 61.2277 63.9112 56.6519C61.3621 53.2498 59.1483 49.5123 57.1071 45.9377C61.0219 34.0352 62.8906 24.3416 62.8906 17.3698C62.8906 9.54977 60.0012 1.38477 51.6685 1.38477C49.1194 1.38477 46.5654 2.9181 45.2046 5.12706C41.4671 11.7587 43.1681 26.2104 49.6273 40.4944C47.1961 47.7989 44.4739 55.0033 41.4671 62.0904C38.7454 68.5544 35.6835 75.186 32.2815 81.305C13.5796 88.7896 1.50458 97.4625 0.143743 104.257C-0.364174 106.811 0.483951 109.192 2.35749 111.061C3.03791 111.574 5.41937 113.615 9.49708 113.615C21.9075 113.615 35.0031 93.5477 41.6348 81.4775C46.7379 79.7764 51.841 78.0754 56.9394 76.7146C62.3183 75.2538 67.7668 74.0624 73.2646 73.1448C86.3554 84.8748 97.9177 86.7483 103.701 86.7483C110.841 86.7483 113.395 83.8541 114.243 81.4775C115.776 78.4108 114.751 75.0135 113.222 73.3125H113.227ZM106.423 78.2479C105.91 80.7971 103.356 82.4981 99.7912 82.4981C98.7706 82.4981 97.9225 82.3256 96.8971 82.1579C90.4379 80.6246 84.3142 77.395 78.1952 72.2919C82.9129 71.4941 87.6897 71.0965 92.4744 71.1035C96.0489 71.1035 99.1108 71.2712 101.147 71.7839C103.529 72.2919 107.271 73.8252 106.418 78.2431L106.423 78.2479ZM70.3704 70.2554C65.6256 71.1445 60.9181 72.2219 56.2589 73.485C52.1956 74.5413 48.1684 75.7318 44.1839 77.0548C46.2552 73.0432 48.1843 68.9597 49.9675 64.8121C52.0087 60.0491 53.705 55.1185 55.4108 50.5281C57.1071 53.4175 58.9806 56.3116 60.8494 58.8608C63.9049 62.7562 67.0801 66.5562 70.3704 70.2554ZM48.0987 6.99581C48.3993 6.39343 48.8593 5.88505 49.4288 5.52598C49.9982 5.16691 50.6552 4.97093 51.3283 4.95935C54.8981 4.95935 55.5785 9.03706 55.5785 12.2714C55.5785 17.71 53.8775 26.0427 50.9881 35.5637C46.0527 22.3004 45.7173 11.2508 48.0987 6.99581ZM29.3921 86.2356C20.7192 100.52 12.3865 109.36 7.28812 109.36C6.3682 109.366 5.47214 109.068 4.73895 108.512C3.71833 107.491 3.20562 106.303 3.54583 104.942C4.56645 99.8391 14.4277 92.6996 29.3921 86.2356Z" fill="#C2C5BB"/>
</g>
<defs>
<clipPath id="clip0">
<rect width="115" height="115" fill="white"/>
</clipPath>
</defs>
</svg>
